<svg width="157" height="40" viewBox="0 0 157 40" fill="none" xmlns="http://www.w3.org/2000/svg">
<path d="M0 0H156.667V40H0V0Z" fill="white"/>
<path d="M45.8267 12.2666V20.1999H54.4267V21.3333H45.8267V29.9999H44.4533V11.1333H55.76V12.2666H45.8267Z" fill="#0D1117"/>
<path d="M68.3277 23.1466L64.4877 13.6133C64.3544 13.3021 64.2255 12.9288 64.101 12.4933C64.0477 12.7066 63.9899 12.911 63.9277 13.1066C63.8655 13.2933 63.7988 13.4666 63.7277 13.6266L59.8877 23.1466H68.3277ZM72.501 29.9999H71.4477C71.3233 29.9999 71.221 29.9688 71.141 29.9066C71.061 29.8355 70.9988 29.7466 70.9544 29.6399L68.741 24.1599H59.4744L57.261 29.6399C57.2255 29.7377 57.1633 29.8221 57.0744 29.8933C56.9855 29.9644 56.8788 29.9999 56.7544 29.9999H55.7144L63.4344 11.1333H64.781L72.501 29.9999Z" fill="#0D1117"/>
<path d="M81.8683 28.9066C83.5217 28.9066 84.7706 28.551 85.615 27.8399C86.4683 27.1199 86.895 26.111 86.895 24.8133C86.895 24.2177 86.7794 23.6844 86.5483 23.2133C86.3261 22.7333 86.0017 22.3288 85.575 21.9999C85.1483 21.6621 84.6239 21.4044 84.0017 21.2266C83.3794 21.0488 82.6728 20.9599 81.8817 20.9599H77.135V28.9066H81.8683ZM77.135 12.2133V19.9599H81.215C82.0861 19.9599 82.8283 19.8488 83.4417 19.6266C84.0639 19.4044 84.5706 19.111 84.9617 18.7466C85.3617 18.3821 85.655 17.9688 85.8417 17.5066C86.0283 17.0444 86.1217 16.5688 86.1217 16.0799C86.1217 14.8088 85.7172 13.8488 84.9083 13.1999C84.1083 12.5421 82.8683 12.2133 81.1883 12.2133H77.135ZM81.1883 11.1333C82.2639 11.1333 83.1972 11.2399 83.9883 11.4533C84.7794 11.6666 85.4328 11.9821 85.9483 12.3999C86.4639 12.8088 86.8461 13.311 87.095 13.9066C87.3439 14.5021 87.4683 15.1777 87.4683 15.9333C87.4683 16.431 87.3794 16.911 87.2017 17.3733C87.0328 17.8355 86.7839 18.2621 86.455 18.6533C86.135 19.0444 85.735 19.3866 85.255 19.6799C84.7839 19.9644 84.2417 20.1821 83.6283 20.3333C85.1128 20.5466 86.2506 21.0399 87.0417 21.8133C87.8417 22.5777 88.2417 23.5866 88.2417 24.8399C88.2417 25.6399 88.0994 26.3599 87.815 26.9999C87.5306 27.6399 87.1172 28.1821 86.575 28.6266C86.0328 29.071 85.3661 29.4133 84.575 29.6533C83.7839 29.8844 82.8861 29.9999 81.8817 29.9999H75.7617V11.1333H81.1883Z" fill="#0D1117"/>
<path d="M97.384 20.4533C98.2195 20.4533 98.9662 20.3555 99.624 20.1599C100.291 19.9555 100.851 19.6666 101.304 19.2933C101.766 18.9199 102.117 18.471 102.357 17.9466C102.597 17.4221 102.717 16.831 102.717 16.1733C102.717 14.831 102.277 13.8355 101.397 13.1866C100.526 12.5377 99.2506 12.2133 97.5706 12.2133H94.1173V20.4533H97.384ZM105.757 29.9999H104.584C104.433 29.9999 104.304 29.9777 104.197 29.9333C104.1 29.8799 104.006 29.7866 103.917 29.6533L97.864 21.9999C97.7928 21.9021 97.7173 21.8177 97.6373 21.7466C97.5662 21.6755 97.4817 21.6221 97.384 21.5866C97.2951 21.5421 97.184 21.511 97.0506 21.4933C96.9262 21.4755 96.7706 21.4666 96.584 21.4666H94.1173V29.9999H92.744V11.1333H97.5706C99.7395 11.1333 101.362 11.5555 102.437 12.3999C103.522 13.2355 104.064 14.4666 104.064 16.0933C104.064 16.8133 103.94 17.471 103.691 18.0666C103.442 18.6621 103.082 19.1866 102.611 19.6399C102.148 20.0844 101.584 20.4488 100.917 20.7333C100.26 21.0177 99.5173 21.2088 98.6906 21.3066C98.904 21.4399 99.0951 21.6177 99.264 21.8399L105.757 29.9999Z" fill="#0D1117"/>
<path d="M110.449 29.9999H109.075V11.1333H110.449V29.9999Z" fill="#0D1117"/>
<path d="M128.282 11.5999C128.282 11.7688 128.219 11.951 128.095 12.1466L116.122 28.8666H128.188V29.9999H114.295V29.5066C114.295 29.4088 114.308 29.3244 114.335 29.2533C114.371 29.1733 114.411 29.0977 114.455 29.0266L126.455 12.2666H114.642V11.1333H128.282V11.5999Z" fill="#0D1117"/>
<path d="M144.352 11.5999C144.352 11.7688 144.29 11.951 144.166 12.1466L132.192 28.8666H144.259V29.9999H130.366V29.5066C130.366 29.4088 130.379 29.3244 130.406 29.2533C130.441 29.1733 130.481 29.0977 130.526 29.0266L142.526 12.2666H130.712V11.1333H144.352V11.5999Z" fill="#0D1117"/>
<path d="M33.3333 12.9999C33.3333 15.5772 31.244 17.6666 28.6667 17.6666C26.0893 17.6666 24 15.5772 24 12.9999C24 10.4226 26.0893 8.33325 28.6667 8.33325C31.244 8.33325 33.3333 10.4226 33.3333 12.9999Z" fill="#0D1117"/>
<path d="M19.3333 12.9999C19.3333 15.5772 17.244 17.6666 14.6667 17.6666C12.0893 17.6666 10 15.5772 10 12.9999C10 10.4226 12.0893 8.33325 14.6667 8.33325C17.244 8.33325 19.3333 10.4226 19.3333 12.9999Z" fill="#0D1117"/>
<path d="M19.3333 26.9999C19.3333 29.5772 17.244 31.6666 14.6667 31.6666C12.0893 31.6666 10 29.5772 10 26.9999C10 24.4226 12.0893 22.3333 14.6667 22.3333C17.244 22.3333 19.3333 24.4226 19.3333 26.9999Z" fill="#0D1117"/>
</svg>
