<svg width="157" height="40" viewBox="0 0 157 40" fill="none" xmlns="http://www.w3.org/2000/svg">
<path fill-rule="evenodd" clip-rule="evenodd" d="M156.667 0H0V40H156.667V0ZM19.3333 12.9999C19.3333 15.5772 17.244 17.6666 14.6667 17.6666C12.0893 17.6666 10 15.5772 10 12.9999C10 10.4226 12.0893 8.33325 14.6667 8.33325C17.244 8.33325 19.3333 10.4226 19.3333 12.9999ZM28.6667 17.6666C31.244 17.6666 33.3333 15.5772 33.3333 12.9999C33.3333 10.4226 31.244 8.33325 28.6667 8.33325C26.0893 8.33325 24 10.4226 24 12.9999C24 15.5772 26.0893 17.6666 28.6667 17.6666ZM45.8267 20.1999V12.2666H55.76V11.1333H44.4533V29.9999H45.8267V21.3333H54.4267V20.1999H45.8267ZM64.4877 13.6133L68.3277 23.1466H59.8877L63.7277 13.6266C63.7988 13.4666 63.8655 13.2933 63.9277 13.1066C63.9899 12.911 64.0477 12.7066 64.101 12.4933C64.2255 12.9288 64.3544 13.3021 64.4877 13.6133ZM71.4477 29.9999H72.501L64.781 11.1333H63.4344L55.7144 29.9999H56.7544C56.8788 29.9999 56.9855 29.9644 57.0744 29.8933C57.1633 29.8221 57.2255 29.7377 57.261 29.6399L59.4744 24.1599H68.741L70.9544 29.6399C70.9988 29.7466 71.061 29.8355 71.141 29.9066C71.221 29.9688 71.3233 29.9999 71.4477 29.9999ZM81.8683 28.9066C83.5217 28.9066 84.7706 28.551 85.615 27.8399C86.4683 27.1199 86.895 26.111 86.895 24.8133C86.895 24.2177 86.7794 23.6844 86.5483 23.2133C86.3261 22.7333 86.0017 22.3288 85.575 21.9999C85.1483 21.6621 84.6239 21.4044 84.0017 21.2266C83.3794 21.0488 82.6728 20.9599 81.8817 20.9599H77.135V28.9066H81.8683ZM77.135 12.2133V19.9599H81.215C82.0861 19.9599 82.8283 19.8488 83.4417 19.6266C84.0639 19.4044 84.5706 19.111 84.9617 18.7466C85.3617 18.3821 85.655 17.9688 85.8417 17.5066C86.0283 17.0444 86.1217 16.5688 86.1217 16.0799C86.1217 14.8088 85.7172 13.8488 84.9083 13.1999C84.1083 12.5421 82.8683 12.2133 81.1883 12.2133H77.135ZM81.1883 11.1333C82.2639 11.1333 83.1972 11.2399 83.9883 11.4533C84.7794 11.6666 85.4328 11.9821 85.9483 12.3999C86.4639 12.8088 86.8461 13.311 87.095 13.9066C87.3439 14.5021 87.4683 15.1777 87.4683 15.9333C87.4683 16.431 87.3794 16.911 87.2017 17.3733C87.0328 17.8355 86.7839 18.2621 86.455 18.6533C86.135 19.0444 85.735 19.3866 85.255 19.6799C84.7839 19.9644 84.2417 20.1821 83.6283 20.3333C85.1128 20.5466 86.2505 21.0399 87.0417 21.8133C87.8417 22.5777 88.2417 23.5866 88.2417 24.8399C88.2417 25.6399 88.0994 26.3599 87.815 26.9999C87.5306 27.6399 87.1172 28.1821 86.575 28.6266C86.0328 29.071 85.3661 29.4133 84.575 29.6533C83.7839 29.8844 82.8861 29.9999 81.8817 29.9999H75.7617V11.1333H81.1883ZM99.624 20.1599C98.9662 20.3555 98.2195 20.4533 97.384 20.4533H94.1173V12.2133H97.5706C99.2506 12.2133 100.526 12.5377 101.397 13.1866C102.277 13.8355 102.717 14.831 102.717 16.1733C102.717 16.831 102.597 17.4221 102.357 17.9466C102.117 18.471 101.766 18.9199 101.304 19.2933C100.851 19.6666 100.291 19.9555 99.624 20.1599ZM104.584 29.9999H105.757L99.264 21.8399C99.0951 21.6177 98.904 21.4399 98.6906 21.3066C99.5173 21.2088 100.26 21.0177 100.917 20.7333C101.584 20.4488 102.148 20.0844 102.611 19.6399C103.082 19.1866 103.442 18.6621 103.691 18.0666C103.94 17.471 104.064 16.8133 104.064 16.0933C104.064 14.4666 103.522 13.2355 102.437 12.3999C101.362 11.5555 99.7395 11.1333 97.5706 11.1333H92.744V29.9999H94.1173V21.4666H96.584C96.7706 21.4666 96.9262 21.4755 97.0506 21.4933C97.184 21.511 97.2951 21.5421 97.384 21.5866C97.4817 21.6221 97.5662 21.6755 97.6373 21.7466C97.7173 21.8177 97.7928 21.9021 97.864 21.9999L103.917 29.6533C104.006 29.7866 104.1 29.8799 104.197 29.9333C104.304 29.9777 104.433 29.9999 104.584 29.9999ZM110.449 29.9999H109.075V11.1333H110.449V29.9999ZM128.095 12.1466C128.219 11.951 128.282 11.7688 128.282 11.5999V11.1333H114.642V12.2666H126.455L114.455 29.0266C114.411 29.0977 114.371 29.1733 114.335 29.2533C114.308 29.3244 114.295 29.4088 114.295 29.5066V29.9999H128.188V28.8666H116.122L128.095 12.1466ZM144.352 11.5999C144.352 11.7688 144.29 11.951 144.166 12.1466L132.192 28.8666H144.259V29.9999H130.366V29.5066C130.366 29.4088 130.379 29.3244 130.406 29.2533C130.441 29.1733 130.481 29.0977 130.526 29.0266L142.526 12.2666H130.712V11.1333H144.352V11.5999ZM14.6667 31.6666C17.244 31.6666 19.3333 29.5772 19.3333 26.9999C19.3333 24.4226 17.244 22.3333 14.6667 22.3333C12.0893 22.3333 10 24.4226 10 26.9999C10 29.5772 12.0893 31.6666 14.6667 31.6666Z" fill="#0D1117"/>
</svg>
