<svg width="1200" height="192" viewBox="0 0 1200 192" fill="none" xmlns="http://www.w3.org/2000/svg">
<path d="M0 42.0382C0 18.8212 18.8211 0 42.0382 0H1157.96C1181.18 0 1200 18.8211 1200 42.0382V149.045C1200 172.262 1181.18 191.083 1157.96 191.083H42.0382C18.8212 191.083 0 172.262 0 149.045V42.0382Z" fill="#1DB954"/>
<path d="M82.8026 124.378H120.44V135.958H82.8026C74.117 135.958 66.5316 133.063 60.2779 126.867C54.0822 120.787 50.9554 113.318 50.9554 104.574C50.9554 97.0469 53.2137 90.3301 57.7302 84.4239C62.2467 78.5177 68.3266 74.7539 75.5646 73.1326C77.9965 64.2733 82.8025 57.0932 90.0405 51.5924C97.2785 46.0915 105.501 43.3121 114.65 43.3121C125.941 43.3121 135.495 47.2496 143.37 55.1245C149.855 61.6097 153.619 69.3689 154.777 78.0544C150.724 78.0544 146.844 79.1546 143.312 80.718C142.675 74.0591 140.012 68.2687 135.148 63.3468C129.473 57.7881 122.64 54.8929 114.65 54.8929C106.659 54.8929 99.8263 57.7881 94.1517 63.3468C88.5929 69.0214 85.6977 75.8541 85.6977 83.8448H82.8026C77.1859 83.8448 72.4378 85.8136 68.5003 89.8089C64.5049 93.7464 62.5362 98.4945 62.5362 104.111C62.5362 109.728 64.5049 114.476 68.5003 118.587C72.4378 122.409 77.1859 124.378 82.8026 124.378ZM178.344 120.324V140.591C178.344 144.065 174.87 147.539 170.816 147.539H138.969C135.495 147.539 132.021 144.065 132.021 140.012V119.745C132.021 116.271 135.495 112.797 138.969 112.797V104.111C138.969 96.0046 147.076 89.6352 155.182 89.6352C163.289 89.6352 171.395 96.0046 171.395 104.111V112.797C174.87 112.797 178.344 116.271 178.344 120.324ZM163.868 104.111C163.868 99.4789 159.815 96.5837 155.182 96.5837C150.55 96.5837 146.497 99.4789 146.497 104.111V112.797H163.868V104.111Z" fill="white"/>
<path d="M268.662 106.083L259.166 81.2484C258.482 79.5541 257.798 77.414 257.115 74.828C256.788 76.1062 256.446 77.2951 256.089 78.3949C255.762 79.4947 255.435 80.4756 255.108 81.3376L245.656 106.083H268.662ZM287.433 129.936H280.121C279.289 129.936 278.605 129.728 278.07 129.312C277.535 128.896 277.149 128.361 276.911 127.707L271.248 112.86H243.025L237.363 127.707C237.155 128.272 236.769 128.792 236.204 129.268C235.639 129.713 234.955 129.936 234.153 129.936H226.841L252.344 65.9108H261.93L287.433 129.936Z" fill="white"/>
<path d="M330.273 84.6369V129.936H325.057C323.868 129.936 323.095 129.357 322.738 128.197L322.114 123.65C321.133 124.69 320.108 125.641 319.038 126.503C317.968 127.365 316.823 128.108 315.604 128.732C314.386 129.327 313.093 129.788 311.726 130.115C310.358 130.471 308.887 130.65 307.312 130.65C304.815 130.65 302.615 130.234 300.713 129.401C298.84 128.569 297.265 127.41 295.987 125.924C294.709 124.408 293.742 122.594 293.089 120.484C292.435 118.374 292.108 116.04 292.108 113.484V84.6369H300.847V113.484C300.847 116.724 301.59 119.251 303.076 121.064C304.562 122.847 306.836 123.739 309.897 123.739C312.127 123.739 314.207 123.219 316.14 122.178C318.072 121.108 319.885 119.652 321.579 117.809V84.6369H330.273Z" fill="white"/>
<path d="M356.587 130.65C352.931 130.65 350.108 129.624 348.116 127.573C346.154 125.522 345.173 122.594 345.173 118.79V91.6815H339.912C339.407 91.6815 338.976 91.5329 338.619 91.2357C338.292 90.9087 338.129 90.4331 338.129 89.8089V86.2866L345.485 85.2611L347.447 71.7516C347.566 71.2463 347.789 70.8599 348.116 70.5924C348.473 70.2951 348.919 70.1465 349.454 70.1465H353.868V85.3503H366.708V91.6815H353.868V118.21C353.868 119.994 354.299 121.331 355.161 122.223C356.052 123.085 357.182 123.516 358.549 123.516C359.352 123.516 360.035 123.412 360.6 123.204C361.195 122.996 361.7 122.773 362.116 122.535C362.532 122.268 362.889 122.03 363.186 121.822C363.483 121.614 363.751 121.51 363.989 121.51C364.286 121.51 364.509 121.584 364.657 121.732C364.836 121.851 365.014 122.059 365.192 122.357L367.778 126.548C366.352 127.856 364.657 128.866 362.696 129.58C360.734 130.293 358.698 130.65 356.587 130.65Z" fill="white"/>
<path d="M383.411 90.3885C385.313 88.4565 387.409 86.896 389.697 85.707C392.016 84.518 394.676 83.9236 397.678 83.9236C400.175 83.9236 402.36 84.3397 404.232 85.172C406.135 86.0042 407.725 87.1783 409.003 88.6943C410.281 90.1805 411.247 91.9788 411.901 94.0892C412.555 96.1996 412.882 98.5329 412.882 101.089V129.936H404.143V101.089C404.143 97.8493 403.4 95.3376 401.914 93.5541C400.428 91.741 398.154 90.8344 395.092 90.8344C392.863 90.8344 390.767 91.3694 388.806 92.4395C386.874 93.4798 385.075 94.9066 383.411 96.7197V129.936H374.716V64.1274H383.411V90.3885Z" fill="white"/>
<path d="M454.621 102.248C454.621 100.524 454.368 98.9342 453.863 97.4777C453.387 96.0212 452.674 94.758 451.723 93.6879C450.772 92.6178 449.612 91.7856 448.245 91.1911C446.878 90.5966 445.302 90.2994 443.519 90.2994C439.863 90.2994 436.98 91.3546 434.869 93.465C432.789 95.5754 431.466 98.5032 430.901 102.248H454.621ZM461.799 123.471C460.729 124.72 459.496 125.805 458.099 126.726C456.702 127.618 455.215 128.346 453.64 128.911C452.065 129.476 450.43 129.892 448.736 130.159C447.071 130.427 445.421 130.561 443.786 130.561C440.665 130.561 437.767 130.04 435.092 129C432.447 127.93 430.143 126.384 428.181 124.363C426.249 122.312 424.733 119.786 423.634 116.783C422.564 113.752 422.029 110.274 422.029 106.35C422.029 103.2 422.519 100.272 423.5 97.5669C424.481 94.8323 425.878 92.4544 427.691 90.4331C429.534 88.4119 431.778 86.8216 434.423 85.6624C437.069 84.5032 440.041 83.9236 443.341 83.9236C446.105 83.9236 448.646 84.3843 450.965 85.3057C453.313 86.1974 455.334 87.5053 457.028 89.2293C458.723 90.9533 460.045 93.0786 460.997 95.6051C461.978 98.1316 462.468 101.015 462.468 104.255C462.468 105.592 462.319 106.499 462.022 106.975C461.725 107.42 461.175 107.643 460.372 107.643H430.678C430.767 110.348 431.154 112.711 431.837 114.732C432.521 116.724 433.457 118.389 434.646 119.726C435.865 121.064 437.307 122.059 438.971 122.713C440.636 123.367 442.493 123.694 444.544 123.694C446.476 123.694 448.141 123.471 449.538 123.025C450.965 122.58 452.183 122.104 453.194 121.599C454.234 121.064 455.096 120.573 455.78 120.127C456.493 119.682 457.118 119.459 457.653 119.459C458.366 119.459 458.916 119.726 459.302 120.261L461.799 123.471Z" fill="white"/>
<path d="M479.972 90.9236C480.953 89.8832 481.978 88.9321 483.049 88.0701C484.119 87.2081 485.248 86.4798 486.437 85.8853C487.656 85.2611 488.949 84.7856 490.316 84.4586C491.713 84.1019 493.199 83.9236 494.775 83.9236C497.272 83.9236 499.456 84.3397 501.329 85.172C503.231 86.0042 504.821 87.1783 506.1 88.6943C507.378 90.1805 508.344 91.9788 508.998 94.0892C509.652 96.1996 509.979 98.5329 509.979 101.089V129.936H501.24V101.089C501.24 97.8493 500.497 95.3376 499.01 93.5541C497.524 91.741 495.25 90.8344 492.189 90.8344C489.959 90.8344 487.864 91.3694 485.902 92.4395C483.97 93.4798 482.172 94.9066 480.507 96.7197V129.936H471.813V84.6369H477.029C478.248 84.6369 479.006 85.2166 479.303 86.3758L479.972 90.9236Z" fill="white"/>
<path d="M564.038 129.936H555.299V91.6815H532.56V118.21C532.56 119.994 532.991 121.331 533.853 122.223C534.745 123.085 535.874 123.516 537.241 123.516C538.044 123.516 538.728 123.412 539.292 123.204C539.887 122.996 540.392 122.773 540.808 122.535C541.224 122.268 541.581 122.03 541.878 121.822C542.176 121.614 542.443 121.51 542.681 121.51C542.978 121.51 543.201 121.584 543.35 121.732C543.528 121.851 543.706 122.059 543.885 122.357L546.471 126.548C545.044 127.856 543.35 128.866 541.388 129.58C539.426 130.293 537.39 130.65 535.28 130.65C531.624 130.65 528.8 129.624 526.808 127.573C524.847 125.522 523.866 122.594 523.866 118.79V91.6815H518.604C518.099 91.6815 517.668 91.5329 517.312 91.2357C516.985 90.9087 516.821 90.4331 516.821 89.8089V86.2866L524.222 85.2611L526.14 71.7516C526.258 71.2463 526.481 70.8599 526.808 70.5924C527.165 70.2951 527.611 70.1465 528.146 70.1465H532.56V85.3503H564.038V129.936ZM565.999 70.3694C565.999 71.172 565.836 71.9448 565.509 72.6879C565.182 73.4013 564.736 74.0403 564.171 74.6051C563.636 75.1401 562.997 75.5711 562.254 75.8981C561.511 76.1953 560.738 76.3439 559.936 76.3439C559.133 76.3439 558.375 76.1953 557.662 75.8981C556.948 75.5711 556.309 75.1401 555.745 74.6051C555.21 74.0403 554.779 73.4013 554.452 72.6879C554.154 71.9448 554.006 71.172 554.006 70.3694C554.006 69.5372 554.154 68.7495 554.452 68.0064C554.779 67.2633 555.21 66.6242 555.745 66.0892C556.309 65.5244 556.948 65.0934 557.662 64.7962C558.375 64.4692 559.133 64.3057 559.936 64.3057C560.738 64.3057 561.511 64.4692 562.254 64.7962C562.997 65.0934 563.636 65.5244 564.171 66.0892C564.736 66.6242 565.182 67.2633 565.509 68.0064C565.836 68.7495 565.999 69.5372 565.999 70.3694Z" fill="white"/>
<path d="M608.405 93.1083C608.137 93.4352 607.87 93.7028 607.602 93.9108C607.365 94.0892 607.008 94.1783 606.532 94.1783C606.057 94.1783 605.551 94 605.016 93.6433C604.511 93.2569 603.857 92.8556 603.055 92.4395C602.282 91.9936 601.331 91.5924 600.201 91.2357C599.101 90.8493 597.734 90.6561 596.099 90.6561C593.959 90.6561 592.072 91.0425 590.437 91.8153C588.802 92.5881 587.435 93.6879 586.335 95.1147C585.265 96.5414 584.447 98.2803 583.883 100.331C583.318 102.382 583.035 104.686 583.035 107.242C583.035 109.887 583.333 112.251 583.927 114.331C584.522 116.382 585.369 118.121 586.469 119.548C587.568 120.945 588.906 122.015 590.481 122.758C592.057 123.471 593.81 123.828 595.742 123.828C597.615 123.828 599.161 123.605 600.379 123.159C601.598 122.684 602.609 122.178 603.411 121.643C604.214 121.108 604.883 120.618 605.418 120.172C605.953 119.696 606.503 119.459 607.067 119.459C607.781 119.459 608.331 119.726 608.717 120.261L611.214 123.471C610.173 124.749 608.999 125.834 607.691 126.726C606.413 127.618 605.046 128.346 603.59 128.911C602.133 129.476 600.602 129.892 598.997 130.159C597.422 130.427 595.817 130.561 594.182 130.561C591.358 130.561 588.713 130.04 586.246 129C583.808 127.96 581.683 126.444 579.87 124.452C578.086 122.461 576.674 120.023 575.634 117.14C574.594 114.227 574.074 110.928 574.074 107.242C574.074 103.883 574.534 100.777 575.456 97.9236C576.407 95.0701 577.789 92.6178 579.602 90.5669C581.445 88.4862 583.704 86.8662 586.379 85.707C589.055 84.518 592.116 83.9236 595.564 83.9236C598.804 83.9236 601.658 84.4437 604.125 85.4841C606.592 86.5244 608.791 87.9958 610.723 89.8981L608.405 93.1083Z" fill="white"/>
<path d="M643.674 109.828C640.137 109.947 637.134 110.229 634.667 110.675C632.2 111.091 630.194 111.656 628.648 112.369C627.103 113.083 625.988 113.93 625.304 114.911C624.621 115.862 624.279 116.932 624.279 118.121C624.279 119.251 624.457 120.231 624.814 121.064C625.2 121.866 625.706 122.535 626.33 123.07C626.984 123.575 627.742 123.947 628.604 124.185C629.466 124.423 630.402 124.541 631.413 124.541C632.75 124.541 633.969 124.408 635.069 124.14C636.198 123.873 637.253 123.501 638.234 123.025C639.215 122.52 640.151 121.911 641.043 121.197C641.935 120.484 642.812 119.667 643.674 118.745V109.828ZM618.171 90.9681C620.697 88.5605 623.432 86.7622 626.374 85.5732C629.347 84.3843 632.602 83.7898 636.139 83.7898C638.725 83.7898 641.013 84.2208 643.005 85.0828C644.997 85.9151 646.676 87.0892 648.043 88.6051C649.411 90.121 650.436 91.9342 651.12 94.0446C651.833 96.155 652.19 98.4883 652.19 101.045V129.936H648.311C647.449 129.936 646.795 129.803 646.349 129.535C645.903 129.238 645.546 128.703 645.279 127.93L644.343 123.962C643.183 125.032 642.039 125.983 640.909 126.815C639.78 127.618 638.591 128.316 637.343 128.911C636.124 129.476 634.816 129.907 633.419 130.204C632.022 130.501 630.476 130.65 628.782 130.65C626.999 130.65 625.319 130.412 623.744 129.936C622.198 129.431 620.846 128.673 619.687 127.662C618.527 126.652 617.606 125.389 616.922 123.873C616.268 122.357 615.941 120.588 615.941 118.567C615.941 116.783 616.417 115.074 617.368 113.439C618.349 111.775 619.924 110.289 622.094 108.981C624.294 107.673 627.147 106.603 630.655 105.771C634.192 104.938 638.531 104.463 643.674 104.344V101.045C643.674 97.6263 642.946 95.0701 641.489 93.3758C640.033 91.6815 637.892 90.8344 635.069 90.8344C633.166 90.8344 631.561 91.0722 630.253 91.5478C628.975 92.0234 627.861 92.5584 626.909 93.1529C625.988 93.7176 625.171 94.2378 624.457 94.7134C623.774 95.189 623.06 95.4268 622.317 95.4268C621.723 95.4268 621.202 95.2633 620.757 94.9363C620.34 94.6093 619.999 94.2229 619.731 93.7771L618.171 90.9681Z" fill="white"/>
<path d="M706.155 129.936H697.417V91.6815H674.678V118.21C674.678 119.994 675.109 121.331 675.971 122.223C676.862 123.085 677.992 123.516 679.359 123.516C680.162 123.516 680.846 123.412 681.41 123.204C682.005 122.996 682.51 122.773 682.926 122.535C683.342 122.268 683.699 122.03 683.996 121.822C684.293 121.614 684.561 121.51 684.799 121.51C685.096 121.51 685.319 121.584 685.468 121.732C685.646 121.851 685.824 122.059 686.003 122.357L688.589 126.548C687.162 127.856 685.468 128.866 683.506 129.58C681.544 130.293 679.508 130.65 677.397 130.65C673.741 130.65 670.918 129.624 668.926 127.573C666.964 125.522 665.984 122.594 665.984 118.79V91.6815H660.722C660.217 91.6815 659.786 91.5329 659.429 91.2357C659.102 90.9087 658.939 90.4331 658.939 89.8089V86.2866L666.34 85.2611L668.257 71.7516C668.376 71.2463 668.599 70.8599 668.926 70.5924C669.283 70.2951 669.729 70.1465 670.264 70.1465H674.678V85.3503H706.155V129.936ZM708.117 70.3694C708.117 71.172 707.954 71.9448 707.627 72.6879C707.3 73.4013 706.854 74.0403 706.289 74.6051C705.754 75.1401 705.115 75.5711 704.372 75.8981C703.629 76.1953 702.856 76.3439 702.054 76.3439C701.251 76.3439 700.493 76.1953 699.78 75.8981C699.066 75.5711 698.427 75.1401 697.862 74.6051C697.327 74.0403 696.896 73.4013 696.569 72.6879C696.272 71.9448 696.124 71.172 696.124 70.3694C696.124 69.5372 696.272 68.7495 696.569 68.0064C696.896 67.2633 697.327 66.6242 697.862 66.0892C698.427 65.5244 699.066 65.0934 699.78 64.7962C700.493 64.4692 701.251 64.3057 702.054 64.3057C702.856 64.3057 703.629 64.4692 704.372 64.7962C705.115 65.0934 705.754 65.5244 706.289 66.0892C706.854 66.6242 707.3 67.2633 707.627 68.0064C707.954 68.7495 708.117 69.5372 708.117 70.3694Z" fill="white"/>
<path d="M738.083 83.9236C741.412 83.9236 744.414 84.4735 747.09 85.5732C749.794 86.6433 752.083 88.2038 753.956 90.2548C755.858 92.276 757.315 94.7282 758.325 97.6115C759.336 100.465 759.841 103.675 759.841 107.242C759.841 110.809 759.336 114.034 758.325 116.917C757.315 119.8 755.858 122.253 753.956 124.274C752.083 126.295 749.794 127.856 747.09 128.955C744.414 130.025 741.412 130.561 738.083 130.561C734.724 130.561 731.693 130.025 728.988 128.955C726.312 127.856 724.024 126.295 722.121 124.274C720.219 122.253 718.748 119.8 717.707 116.917C716.697 114.034 716.192 110.809 716.192 107.242C716.192 103.675 716.697 100.465 717.707 97.6115C718.748 94.7282 720.219 92.276 722.121 90.2548C724.024 88.2038 726.312 86.6433 728.988 85.5732C731.693 84.4735 734.724 83.9236 738.083 83.9236ZM738.083 123.783C742.363 123.783 745.559 122.342 747.669 119.459C749.78 116.575 750.835 112.518 750.835 107.287C750.835 102.055 749.78 97.9979 747.669 95.1147C745.559 92.2017 742.363 90.7452 738.083 90.7452C733.744 90.7452 730.504 92.2017 728.363 95.1147C726.253 97.9979 725.198 102.055 725.198 107.287C725.198 112.518 726.253 116.575 728.363 119.459C730.504 122.342 733.744 123.783 738.083 123.783Z" fill="white"/>
<path d="M777.706 90.9236C778.686 89.8832 779.712 88.9321 780.782 88.0701C781.852 87.2081 782.982 86.4798 784.171 85.8853C785.389 85.2611 786.682 84.7856 788.049 84.4586C789.447 84.1019 790.933 83.9236 792.508 83.9236C795.005 83.9236 797.19 84.3397 799.062 85.172C800.965 86.0042 802.555 87.1783 803.833 88.6943C805.111 90.1805 806.077 91.9788 806.731 94.0892C807.385 96.1996 807.712 98.5329 807.712 101.089V129.936H798.973V101.089C798.973 97.8493 798.23 95.3376 796.744 93.5541C795.258 91.741 792.984 90.8344 789.922 90.8344C787.693 90.8344 785.597 91.3694 783.635 92.4395C781.703 93.4798 779.905 94.9066 778.241 96.7197V129.936H769.546V84.6369H774.763C775.982 84.6369 776.74 85.2166 777.037 86.3758L777.706 90.9236Z" fill="white"/>
<path d="M876.909 76.3439C876.612 76.8493 876.3 77.2208 875.973 77.4586C875.646 77.6964 875.23 77.8153 874.725 77.8153C874.19 77.8153 873.58 77.5775 872.897 77.1019C872.213 76.5966 871.351 76.0467 870.311 75.4522C869.3 74.828 868.081 74.2781 866.655 73.8025C865.228 73.2972 863.519 73.0446 861.527 73.0446C859.655 73.0446 858.005 73.2972 856.578 73.8025C855.181 74.2781 854.007 74.9469 853.056 75.8089C852.105 76.6412 851.376 77.6369 850.871 78.7962C850.396 79.9257 850.158 81.1592 850.158 82.4968C850.158 84.2208 850.589 85.6476 851.451 86.7771C852.343 87.9066 853.502 88.8726 854.928 89.6752C856.355 90.4777 857.975 91.1762 859.788 91.7707C861.602 92.3652 863.459 92.9894 865.362 93.6433C867.264 94.2675 869.122 94.9958 870.935 95.828C872.748 96.6603 874.368 97.7155 875.795 98.9936C877.221 100.242 878.366 101.788 879.228 103.631C880.12 105.444 880.565 107.673 880.565 110.318C880.565 113.142 880.075 115.788 879.094 118.255C878.143 120.722 876.746 122.877 874.903 124.72C873.06 126.563 870.786 128.019 868.081 129.089C865.406 130.13 862.359 130.65 858.941 130.65C856.89 130.65 854.899 130.442 852.967 130.025C851.035 129.639 849.207 129.089 847.483 128.376C845.759 127.633 844.139 126.756 842.623 125.745C841.136 124.705 839.799 123.546 838.61 122.268L841.33 117.72C841.597 117.363 841.909 117.066 842.266 116.828C842.652 116.59 843.083 116.471 843.559 116.471C844.183 116.471 844.897 116.798 845.699 117.452C846.531 118.106 847.542 118.834 848.731 119.637C849.95 120.41 851.391 121.123 853.056 121.777C854.75 122.431 856.801 122.758 859.209 122.758C861.17 122.758 862.924 122.505 864.47 122C866.016 121.465 867.308 120.722 868.349 119.771C869.419 118.79 870.236 117.616 870.801 116.248C871.366 114.881 871.648 113.365 871.648 111.701C871.648 109.828 871.217 108.297 870.355 107.108C869.493 105.919 868.349 104.924 866.922 104.121C865.495 103.318 863.875 102.635 862.062 102.07C860.249 101.505 858.391 100.926 856.489 100.331C854.587 99.707 852.729 98.9936 850.916 98.1911C849.103 97.3885 847.483 96.3482 846.056 95.0701C844.629 93.7622 843.485 92.1423 842.623 90.2102C841.761 88.2484 841.33 85.8408 841.33 82.9873C841.33 80.6985 841.776 78.4841 842.667 76.3439C843.559 74.2038 844.852 72.3163 846.546 70.6815C848.27 69.017 850.381 67.6943 852.878 66.7134C855.374 65.7028 858.228 65.1975 861.438 65.1975C865.035 65.1975 868.334 65.7771 871.336 66.9363C874.368 68.0658 876.999 69.7006 879.228 71.8408L876.909 76.3439Z" fill="white"/>
<path d="M920.248 102.248C920.248 100.524 919.996 98.9342 919.49 97.4777C919.015 96.0212 918.301 94.758 917.35 93.6879C916.399 92.6178 915.24 91.7856 913.873 91.1911C912.505 90.5966 910.93 90.2994 909.146 90.2994C905.49 90.2994 902.607 91.3546 900.497 93.465C898.416 95.5754 897.093 98.5032 896.529 102.248H920.248ZM927.427 123.471C926.357 124.72 925.123 125.805 923.726 126.726C922.329 127.618 920.843 128.346 919.267 128.911C917.692 129.476 916.057 129.892 914.363 130.159C912.698 130.427 911.049 130.561 909.414 130.561C906.293 130.561 903.395 130.04 900.72 129C898.074 127.93 895.771 126.384 893.809 124.363C891.877 122.312 890.361 119.786 889.261 116.783C888.191 113.752 887.656 110.274 887.656 106.35C887.656 103.2 888.146 100.272 889.127 97.5669C890.108 94.8323 891.505 92.4544 893.318 90.4331C895.161 88.4119 897.405 86.8216 900.051 85.6624C902.696 84.5032 905.669 83.9236 908.968 83.9236C911.732 83.9236 914.274 84.3843 916.592 85.3057C918.94 86.1974 920.962 87.5053 922.656 89.2293C924.35 90.9533 925.673 93.0786 926.624 95.6051C927.605 98.1316 928.095 101.015 928.095 104.255C928.095 105.592 927.947 106.499 927.65 106.975C927.352 107.42 926.802 107.643 926 107.643H896.306C896.395 110.348 896.781 112.711 897.465 114.732C898.149 116.724 899.085 118.389 900.274 119.726C901.492 121.064 902.934 122.059 904.599 122.713C906.263 123.367 908.121 123.694 910.172 123.694C912.104 123.694 913.768 123.471 915.166 123.025C916.592 122.58 917.811 122.104 918.822 121.599C919.862 121.064 920.724 120.573 921.408 120.127C922.121 119.682 922.745 119.459 923.28 119.459C923.994 119.459 924.543 119.726 924.93 120.261L927.427 123.471Z" fill="white"/>
<path d="M945.644 93.3312C947.101 90.3588 948.854 88.0255 950.905 86.3312C952.956 84.6369 955.423 83.7898 958.307 83.7898C959.288 83.7898 960.209 83.9087 961.071 84.1465C961.963 84.3546 962.735 84.6815 963.389 85.1274L962.81 91.6815C962.602 92.4841 962.111 92.8854 961.339 92.8854C960.922 92.8854 960.298 92.811 959.466 92.6624C958.634 92.4841 957.742 92.3949 956.791 92.3949C955.394 92.3949 954.16 92.603 953.09 93.0191C952.02 93.4055 951.054 94 950.192 94.8025C949.36 95.5754 948.617 96.5414 947.963 97.7006C947.309 98.8301 946.699 100.123 946.135 101.58V129.936H937.44V84.6369H942.434C943.385 84.6369 944.024 84.8153 944.351 85.172C944.708 85.4989 944.961 86.0934 945.109 86.9554L945.644 93.3312Z" fill="white"/>
<path d="M1009.42 84.6369L991.052 129.936H983.204L964.835 84.6369H972.013C972.697 84.6369 973.262 84.8004 973.708 85.1274C974.154 85.4543 974.451 85.8705 974.599 86.3758L985.434 114.197C985.82 115.357 986.147 116.516 986.415 117.675C986.712 118.805 986.979 119.934 987.217 121.064C987.455 119.934 987.722 118.805 988.02 117.675C988.317 116.546 988.674 115.386 989.09 114.197L1000.06 86.3758C1000.24 85.8705 1000.55 85.4543 1000.99 85.1274C1001.44 84.8004 1001.98 84.6369 1002.6 84.6369H1009.42Z" fill="white"/>
<path d="M1025.43 84.6369V129.936H1016.74V84.6369H1025.43ZM1027.08 70.6369C1027.08 71.4395 1026.92 72.2123 1026.59 72.9554C1026.26 73.6688 1025.82 74.3079 1025.25 74.8726C1024.72 75.4076 1024.08 75.8386 1023.34 76.1656C1022.59 76.4628 1021.82 76.6115 1021.02 76.6115C1020.22 76.6115 1019.46 76.4628 1018.74 76.1656C1018.03 75.8386 1017.39 75.4076 1016.83 74.8726C1016.29 74.3079 1015.86 73.6688 1015.53 72.9554C1015.24 72.2123 1015.09 71.4395 1015.09 70.6369C1015.09 69.8047 1015.24 69.0318 1015.53 68.3185C1015.86 67.5754 1016.29 66.9363 1016.83 66.4013C1017.39 65.8365 1018.03 65.4055 1018.74 65.1083C1019.46 64.7813 1020.22 64.6178 1021.02 64.6178C1021.82 64.6178 1022.59 64.7813 1023.34 65.1083C1024.08 65.4055 1024.72 65.8365 1025.25 66.4013C1025.82 66.9363 1026.26 67.5754 1026.59 68.3185C1026.92 69.0318 1027.08 69.8047 1027.08 70.6369Z" fill="white"/>
<path d="M1069.77 93.1083C1069.5 93.4352 1069.23 93.7028 1068.96 93.9108C1068.72 94.0892 1068.37 94.1783 1067.89 94.1783C1067.42 94.1783 1066.91 94 1066.38 93.6433C1065.87 93.2569 1065.22 92.8556 1064.42 92.4395C1063.64 91.9936 1062.69 91.5924 1061.56 91.2357C1060.46 90.8493 1059.09 90.6561 1057.46 90.6561C1055.32 90.6561 1053.43 91.0425 1051.8 91.8153C1050.16 92.5881 1048.8 93.6879 1047.7 95.1147C1046.63 96.5414 1045.81 98.2803 1045.24 100.331C1044.68 102.382 1044.4 104.686 1044.4 107.242C1044.4 109.887 1044.69 112.251 1045.29 114.331C1045.88 116.382 1046.73 118.121 1047.83 119.548C1048.93 120.945 1050.27 122.015 1051.84 122.758C1053.42 123.471 1055.17 123.828 1057.1 123.828C1058.98 123.828 1060.52 123.605 1061.74 123.159C1062.96 122.684 1063.97 122.178 1064.77 121.643C1065.57 121.108 1066.24 120.618 1066.78 120.172C1067.31 119.696 1067.86 119.459 1068.43 119.459C1069.14 119.459 1069.69 119.726 1070.08 120.261L1072.57 123.471C1071.53 124.749 1070.36 125.834 1069.05 126.726C1067.77 127.618 1066.41 128.346 1064.95 128.911C1063.49 129.476 1061.96 129.892 1060.36 130.159C1058.78 130.427 1057.18 130.561 1055.54 130.561C1052.72 130.561 1050.07 130.04 1047.61 129C1045.17 127.96 1043.04 126.444 1041.23 124.452C1039.45 122.461 1038.03 120.023 1036.99 117.14C1035.95 114.227 1035.43 110.928 1035.43 107.242C1035.43 103.883 1035.89 100.777 1036.82 97.9236C1037.77 95.0701 1039.15 92.6178 1040.96 90.5669C1042.81 88.4862 1045.06 86.8662 1047.74 85.707C1050.42 84.518 1053.48 83.9236 1056.92 83.9236C1060.16 83.9236 1063.02 84.4437 1065.49 85.4841C1067.95 86.5244 1070.15 87.9958 1072.08 89.8981L1069.77 93.1083Z" fill="white"/>
<path d="M1109.91 102.248C1109.91 100.524 1109.66 98.9342 1109.16 97.4777C1108.68 96.0212 1107.97 94.758 1107.01 93.6879C1106.06 92.6178 1104.9 91.7856 1103.54 91.1911C1102.17 90.5966 1100.59 90.2994 1098.81 90.2994C1095.16 90.2994 1092.27 91.3546 1090.16 93.465C1088.08 95.5754 1086.76 98.5032 1086.19 102.248H1109.91ZM1117.09 123.471C1116.02 124.72 1114.79 125.805 1113.39 126.726C1111.99 127.618 1110.51 128.346 1108.93 128.911C1107.36 129.476 1105.72 129.892 1104.03 130.159C1102.36 130.427 1100.71 130.561 1099.08 130.561C1095.96 130.561 1093.06 130.04 1090.38 129C1087.74 127.93 1085.44 126.384 1083.47 124.363C1081.54 122.312 1080.03 119.786 1078.93 116.783C1077.86 113.752 1077.32 110.274 1077.32 106.35C1077.32 103.2 1077.81 100.272 1078.79 97.5669C1079.77 94.8323 1081.17 92.4544 1082.98 90.4331C1084.83 88.4119 1087.07 86.8216 1089.72 85.6624C1092.36 84.5032 1095.33 83.9236 1098.63 83.9236C1101.4 83.9236 1103.94 84.3843 1106.26 85.3057C1108.61 86.1974 1110.63 87.5053 1112.32 89.2293C1114.01 90.9533 1115.34 93.0786 1116.29 95.6051C1117.27 98.1316 1117.76 101.015 1117.76 104.255C1117.76 105.592 1117.61 106.499 1117.31 106.975C1117.02 107.42 1116.47 107.643 1115.66 107.643H1085.97C1086.06 110.348 1086.45 112.711 1087.13 114.732C1087.81 116.724 1088.75 118.389 1089.94 119.726C1091.16 121.064 1092.6 122.059 1094.26 122.713C1095.93 123.367 1097.79 123.694 1099.84 123.694C1101.77 123.694 1103.43 123.471 1104.83 123.025C1106.26 122.58 1107.48 122.104 1108.49 121.599C1109.53 121.064 1110.39 120.573 1111.07 120.127C1111.79 119.682 1112.41 119.459 1112.94 119.459C1113.66 119.459 1114.21 119.726 1114.59 120.261L1117.09 123.471Z" fill="white"/>
</svg>
